Coordinates
nRows=201
nColumns=2
inDegrees=yes
endheader
time	ankle_angle_r	
6.55343	 -4.300228	
6.58669	 -4.269989	
6.61996	 -4.255269	
6.65323	 -4.253691	
6.68649	 -4.255783	
6.71976	 -4.258736	
6.75302	 -4.260307	
6.78629	 -4.257008	
6.81956	 -4.251908	
6.85282	 -4.249873	
6.88609	 -4.251307	
6.91935	 -4.255252	
6.95262	 -4.259280	
6.98589	 -4.262471	
7.01915	 -4.268734	
7.05242	 -4.275545	
7.08569	 -4.273451	
7.11895	 -4.263906	
7.15222	 -4.257060	
7.18548	 -4.256601	
7.21875	 -4.260425	
7.25202	 -4.264428	
7.28528	 -4.265607	
7.31855	 -4.267023	
7.35181	 -4.270101	
7.38508	 -4.269646	
7.41835	 -4.263808	
7.45161	 -4.256012	
7.48488	 -4.250628	
7.51815	 -4.251367	
7.55141	 -4.256312	
7.58468	 -4.261799	
7.61794	 -4.269243	
7.65121	 -4.278754	
7.68448	 -4.286750	
7.71774	 -4.290951	
7.75101	 -4.290518	
7.78427	 -4.287604	
7.81754	 -4.286758	
7.85081	 -4.288992	
7.88407	 -4.292014	
7.91734	 -4.292971	
7.9506	 -4.290653	
7.98387	 -4.289287	
8.01714	 -4.293157	
8.0504	 -4.299927	
8.08367	 -4.306140	
8.11694	 -4.309963	
8.1502	 -4.310063	
8.18347	 -4.310405	
8.21673	 -4.314849	
8.25	 -4.318611	
8.28327	 -4.318740	
8.31653	 -4.319245	
8.3498	 -4.321583	
8.38306	 -4.325341	
8.41633	 -4.329769	
8.4496	 -4.331095	
8.48286	 -4.328929	
8.51613	 -4.326712	
8.5494	 -4.325222	
8.58266	 -4.325983	
8.61593	 -4.331077	
8.64919	 -4.336537	
8.68246	 -4.337397	
8.71573	 -4.333215	
8.74899	 -4.325764	
8.78226	 -4.320007	
8.81552	 -4.320322	
8.84879	 -4.323595	
8.88206	 -4.325501	
8.91532	 -4.326613	
8.94859	 -4.328121	
8.98185	 -4.330283	
9.01512	 -4.332299	
9.04839	 -4.332324	
9.08165	 -4.331775	
9.11492	 -4.332431	
9.14819	 -4.331070	
9.18145	 -4.325972	
9.21472	 -4.320494	
9.24798	 -4.317401	
9.28125	 -4.317903	
9.31452	 -4.320884	
9.34778	 -4.321287	
9.38105	 -4.316291	
9.41431	 -4.309015	
9.44758	 -4.304285	
9.48085	 -4.302932	
9.51411	 -4.300609	
9.54738	 -4.296046	
9.58065	 -4.293505	
9.61391	 -4.292042	
9.64718	 -4.287338	
9.68044	 -4.282984	
9.71371	 -4.283819	
9.74698	 -4.287640	
9.78024	 -4.290892	
9.81351	 -4.290636	
9.84677	 -4.284715	
9.88004	 -4.274726	
9.91331	 -4.263506	
9.94657	 -4.256127	
9.97984	 -4.258717	
10.0131	 -4.267013	
10.0464	 -4.271391	
10.0796	 -4.270837	
10.1129	 -4.266944	
10.1462	 -4.259852	
10.1794	 -4.253076	
10.2127	 -4.248249	
10.246	 -4.244908	
10.2792	 -4.244934	
10.3125	 -4.247065	
10.3458	 -4.249367	
10.379	 -4.254254	
10.4123	 -4.259460	
10.4456	 -4.259387	
10.4788	 -4.255686	
10.5121	 -4.251063	
10.5454	 -4.244903	
10.5786	 -4.239110	
10.6119	 -4.233711	
10.6452	 -4.226820	
10.6784	 -4.224081	
10.7117	 -4.231966	
10.745	 -4.247461	
10.7782	 -4.263696	
10.8115	 -4.274643	
10.8448	 -4.276305	
10.878	 -4.271274	
10.9113	 -4.264814	
10.9446	 -4.259400	
10.9778	 -4.257807	
11.0111	 -4.261033	
11.0444	 -4.264894	
11.0776	 -4.266443	
11.1109	 -4.268849	
11.1442	 -4.276304	
11.1774	 -4.285992	
11.2107	 -4.291057	
11.244	 -4.291174	
11.2772	 -4.289746	
11.3105	 -4.286929	
11.3437	 -4.284917	
11.377	 -4.287618	
11.4103	 -4.294740	
11.4435	 -4.304850	
11.4768	 -4.314200	
11.5101	 -4.316758	
11.5433	 -4.314750	
11.5766	 -4.314586	
11.6099	 -4.316433	
11.6431	 -4.319761	
11.6764	 -4.323304	
11.7097	 -4.322719	
11.7429	 -4.320062	
11.7762	 -4.318839	
11.8095	 -4.315400	
11.8427	 -4.310705	
11.876	 -4.311449	
11.9093	 -4.317174	
11.9425	 -4.323258	
11.9758	 -4.327006	
12.0091	 -4.325878	
12.0423	 -4.320820	
12.0756	 -4.315622	
12.1089	 -4.311381	
12.1421	 -4.309583	
12.1754	 -4.311843	
12.2087	 -4.315296	
12.2419	 -4.318623	
12.2752	 -4.323622	
12.3085	 -4.326929	
12.3417	 -4.325256	
12.375	 -4.321768	
12.4083	 -4.317206	
12.4415	 -4.310509	
12.4748	 -4.305497	
12.5081	 -4.304875	
12.5413	 -4.307244	
12.5746	 -4.309617	
12.6079	 -4.307772	
12.6411	 -4.300417	
12.6744	 -4.291048	
12.7077	 -4.284162	
12.7409	 -4.282418	
12.7742	 -4.284743	
12.8075	 -4.288665	
12.8407	 -4.293061	
12.874	 -4.295434	
12.9073	 -4.293801	
12.9405	 -4.289209	
12.9738	 -4.281832	
13.0071	 -4.273253	
13.0403	 -4.268614	
13.0736	 -4.269314	
13.1069	 -4.272924	
13.1401	 -4.276748	
13.1734	 -4.273756	
13.2067	 -4.260077	
